<svg width="200" height="70" viewBox="0 0 200 70" fill="none" xmlns="http://www.w3.org/2000/svg">
<path d="M48.7013 57.6852C48.0519 58.3333 47.1429 58.7222 46.3636 58.7222C44.5455 58.7222 42.987 57.1667 42.987 55.3518C42.987 53.537 44.5455 51.9815 46.3636 51.9815C48.1818 51.9815 49.7403 53.537 49.7403 55.3518C49.7403 56.2593 49.3506 57.1667 48.7013 57.6852ZM34.2857 38.5C34.9351 39.1481 35.3247 40.0556 35.3247 40.8333C35.3247 41.6111 34.9351 42.6481 34.2857 43.1667C32.987 44.463 30.7792 44.463 29.4805 43.1667C28.1818 41.8704 28.1818 39.6667 29.4805 38.3704C30.7792 37.0741 30.9091 37.3333 31.8182 37.3333C32.7273 37.5926 33.6364 37.8519 34.2857 38.5ZM10 40.963C10 39.1481 11.5584 37.5926 13.3766 37.5926C15.1948 37.5926 16.7532 39.1481 16.7532 40.963C16.7532 42.7778 15.1948 44.3333 13.3766 44.3333C11.5584 44.3333 10 42.7778 10 40.963ZM13.5065 10.1111C15.3247 10.1111 16.8831 11.6667 16.8831 13.4815C16.8831 15.2963 15.3247 16.8519 13.5065 16.8519C11.6883 16.8519 10 15.2963 10 13.4815C10 11.6667 11.5584 10.1111 13.5065 10.1111ZM49.6104 26.5741C49.6104 27.4815 49.2208 28.3889 48.5714 28.9074C47.9221 29.5556 47.013 29.9444 46.2338 29.9444C44.4156 29.9444 42.8571 28.3889 42.8571 26.5741C42.8571 24.7593 44.4156 23.2037 46.2338 23.2037C48.1818 23.2037 49.6104 24.6296 49.6104 26.5741ZM46.2338 48.2222C42.3377 48.2222 39.0909 51.463 39.0909 55.3518C39.0909 59.2407 39.2208 56.7778 39.3506 57.4259C35.0649 55.6111 31.6883 52.2407 29.8701 48.0926H31.6883C33.6364 48.0926 35.3247 47.3148 36.7532 46.0185C38.0519 44.7222 38.8312 42.9074 38.8312 40.963C38.8312 39.0185 38.0519 37.3333 36.7532 35.9074C35.4545 34.6111 33.6364 33.8333 31.6883 33.8333C29.7403 33.8333 30.2597 33.963 29.6104 34.0926C31.4286 29.6852 34.9351 26.1852 39.2208 24.5C39.0909 25.1481 38.961 25.7963 38.961 26.5741C38.961 30.463 42.2078 33.7037 46.1039 33.7037C50 33.7037 49.7403 32.9259 51.1688 31.6296C52.4675 30.3333 53.2467 28.5185 53.2467 26.5741C53.2467 22.6852 50.1299 19.4444 46.1039 19.4444C34.2857 19.4444 24.5455 29.037 24.5455 40.963C24.5455 52.8889 24.6753 43.2963 24.8052 44.3333H19.4805C20 43.2963 20.3896 42.1296 20.3896 40.963C20.3896 37.0741 17.1429 33.8333 13.2468 33.8333C9.35065 33.8333 10.9091 34.0926 9.87013 34.7407V19.7037C10.9091 20.2222 12.0779 20.6111 13.2468 20.6111C17.1429 20.6111 20.3896 17.3704 20.3896 13.4815C20.3896 9.59259 17.1429 6.35185 13.2468 6.35185C9.35065 6.35185 6.36364 9.59259 6.36364 13.4815V40.963C6.36364 44.8519 9.61039 48.0926 13.5065 48.0926H25.974C28.961 56.5185 36.8831 62.4815 46.2338 62.4815C55.5844 62.4815 49.8701 61.7037 51.2987 60.4074C52.5974 59.1111 53.3766 57.2963 53.3766 55.3518C53.3766 51.463 50.1299 48.2222 46.2338 48.2222Z" fill="#FFD600"/>
<path d="M77.5325 35V19.963C77.5325 19.1852 76.8831 18.4074 75.974 18.4074C75.0649 18.4074 74.4156 19.0556 74.4156 19.963V34.8704C74.4156 35.6481 75.0649 36.4259 75.974 36.4259C76.8831 36.4259 77.5325 35.7778 77.5325 35Z" fill="#0066D9"/>
<path d="M131.558 45.3704C130.779 45.3704 130 46.0185 130 46.9259V61.8333C130 62.6111 130.649 63.3889 131.558 63.3889C132.468 63.3889 133.117 62.7407 133.117 61.8333V46.9259C133.117 46.1481 132.338 45.3704 131.558 45.3704Z" fill="#0066D9"/>
<path d="M65.0649 36.4259H71.039C71.8182 36.4259 72.5974 35.7778 72.5974 34.8704C72.5974 33.963 71.948 33.3148 71.039 33.3148H66.4935V19.963C66.4935 19.1852 65.8442 18.4074 64.9351 18.4074C64.026 18.4074 63.3766 19.0556 63.3766 19.963V34.8704C63.5065 35.7778 64.1558 36.4259 65.0649 36.4259Z" fill="#0066D9"/>
<path d="M143.506 60.4074H138.961V46.9259C138.961 46.1481 138.312 45.3704 137.403 45.3704C136.494 45.3704 135.844 46.0185 135.844 46.9259V61.8333C135.844 62.6111 136.494 63.3889 137.403 63.3889H143.377C144.156 63.3889 144.935 62.7407 144.935 61.8333C145.065 61.0556 144.286 60.4074 143.506 60.4074Z" fill="#0066D9"/>
<path d="M88.0519 18.537H82.0779C81.2987 18.537 80.5195 19.1852 80.5195 20.0926V35C80.5195 35.7778 81.1688 36.5556 82.0779 36.5556C82.987 36.5556 83.6364 35.9074 83.6364 35V29.037H87.4026C88.1818 29.037 88.961 28.3889 88.961 27.4815C88.961 26.5741 88.3117 25.9259 87.4026 25.9259H83.6364V21.3889H88.1818C88.961 21.3889 89.7403 20.7407 89.7403 19.8333C89.4805 19.1852 88.8312 18.537 88.0519 18.537Z" fill="#0066D9"/>
<path d="M126.623 18.537H120.649C119.87 18.537 119.091 19.1852 119.091 20.0926V35C119.091 35.7778 119.74 36.5556 120.649 36.5556C121.558 36.5556 122.208 35.9074 122.208 35V29.037H125.844C126.623 29.037 127.403 28.3889 127.403 27.4815C127.403 26.5741 126.753 25.9259 125.844 25.9259H122.078V21.3889H126.623C127.403 21.3889 128.182 20.7407 128.182 19.8333C128.182 19.1852 127.403 18.537 126.623 18.537Z" fill="#0066D9"/>
<path d="M113.766 31.3704C113.766 32.537 112.857 33.4444 111.688 33.4444C110.519 33.4444 109.61 32.537 109.61 31.3704V23.5926C109.61 22.4259 110.519 21.5185 111.688 21.5185C112.857 21.5185 113.766 22.4259 113.766 23.5926V31.3704ZM111.558 18.537C108.701 18.537 106.493 20.8704 106.493 23.5926V31.3704C106.493 34.2222 108.831 36.4259 111.558 36.4259C114.286 36.4259 116.623 34.0926 116.623 31.3704V23.5926C116.623 20.7407 114.416 18.537 111.558 18.537Z" fill="#0066D9"/>
<path d="M98.961 21.5185C99.7403 21.5185 100.519 20.8704 100.519 19.963C100.519 19.0556 99.8701 18.4074 98.961 18.4074H92.987C92.2078 18.4074 91.4286 19.0556 91.4286 19.963V34.8704C91.4286 35.6481 92.0779 36.4259 92.987 36.4259H98.961C99.7403 36.4259 100.519 35.7778 100.519 34.8704C100.519 33.963 99.8701 33.3148 98.961 33.3148H94.4156V28.7778H98.1818C98.961 28.7778 99.7403 28.1296 99.7403 27.2222C99.7403 26.3148 99.0909 25.6667 98.1818 25.6667H94.4156V21.1296H98.961V21.5185Z" fill="#0066D9"/>
<path d="M72.987 45.3704H65.0649C64.2857 45.3704 63.5065 46.0185 63.5065 46.9259C63.5065 47.8333 64.1558 48.4815 65.0649 48.4815H67.5325V61.963C67.5325 62.7407 68.1818 63.5185 69.0909 63.5185C70 63.5185 70.6494 62.8704 70.6494 61.963V48.4815H73.1169C73.8961 48.4815 74.6753 47.8333 74.6753 46.9259C74.4156 46.1481 73.7662 45.3704 72.987 45.3704Z" fill="#0066D9"/>
<path d="M97.1429 48.4815C97.9221 48.4815 98.7013 47.8333 98.7013 46.9259C98.7013 46.0185 98.052 45.3704 97.1429 45.3704H91.1688C90.3896 45.3704 89.6104 46.0185 89.6104 46.9259V61.8333C89.6104 62.6111 90.2597 63.3889 91.1688 63.3889H97.1429C97.9221 63.3889 98.7013 62.7407 98.7013 61.8333C98.7013 60.9259 98.052 60.2778 97.1429 60.2778H92.5974V55.7407H96.3636C97.1429 55.7407 97.9221 55.0926 97.9221 54.1852C97.9221 53.2778 97.2727 52.6296 96.3636 52.6296H92.5974V48.0926H97.1429V48.4815Z" fill="#0066D9"/>
<path d="M179.74 48.4815C180.519 48.4815 181.299 47.8333 181.299 46.9259C181.299 46.0185 180.649 45.3704 179.74 45.3704H173.766C172.987 45.3704 172.208 46.0185 172.208 46.9259V61.8333C172.208 62.6111 172.857 63.3889 173.766 63.3889H179.74C180.519 63.3889 181.299 62.7407 181.299 61.8333C181.299 60.9259 180.649 60.2778 179.74 60.2778H175.195V55.7407H178.961C179.74 55.7407 180.519 55.0926 180.519 54.1852C180.519 53.2778 179.87 52.6296 178.961 52.6296H175.195V48.0926H179.74V48.4815Z" fill="#0066D9"/>
<path d="M85.1948 45.3704C84.4156 45.3704 83.6364 46.0185 83.6364 46.9259V52.8889H79.4805V46.9259C79.4805 46.1481 78.8312 45.3704 77.9221 45.3704C77.013 45.3704 76.3636 46.0185 76.3636 46.9259V61.8333C76.3636 62.6111 77.013 63.3889 77.9221 63.3889C78.8312 63.3889 79.4805 62.7407 79.4805 61.8333V55.8704H83.6364V61.8333C83.6364 62.6111 84.2857 63.3889 85.1948 63.3889C86.1039 63.3889 86.7532 62.7407 86.7532 61.8333V46.9259C86.6234 46.1481 85.974 45.3704 85.1948 45.3704Z" fill="#0066D9"/>
<path d="M125.584 45.3704C124.805 45.3704 124.026 46.0185 124.026 46.9259V52.8889H119.87V46.9259C119.87 46.1481 119.221 45.3704 118.312 45.3704C117.403 45.3704 116.753 46.0185 116.753 46.9259V61.8333C116.753 62.6111 117.403 63.3889 118.312 63.3889C119.221 63.3889 119.87 62.7407 119.87 61.8333V55.8704H124.026V61.8333C124.026 62.6111 124.675 63.3889 125.584 63.3889C126.494 63.3889 127.143 62.7407 127.143 61.8333V46.9259C127.143 46.1481 126.364 45.3704 125.584 45.3704Z" fill="#0066D9"/>
<path d="M109.74 48.4815C110.909 48.4815 111.818 49.3889 111.818 50.5556C111.818 51.7222 112.468 52.1111 113.377 52.1111C114.286 52.1111 114.935 51.463 114.935 50.5556C114.935 47.7037 112.597 45.5 109.87 45.5C107.143 45.5 104.805 47.8333 104.805 50.5556V58.3333C104.805 61.1852 107.143 63.3889 109.87 63.3889C112.597 63.3889 114.935 61.0556 114.935 58.3333C114.935 55.6111 114.286 56.7778 113.377 56.7778C112.468 56.7778 111.818 57.4259 111.818 58.3333C111.818 59.2407 110.909 60.4074 109.74 60.4074C108.571 60.4074 107.662 59.5 107.662 58.3333V50.5556C107.662 49.3889 108.571 48.4815 109.74 48.4815Z" fill="#0066D9"/>
<path d="M188.312 45.3704C185.455 45.3704 183.247 47.7037 183.247 50.4259V61.8333C183.247 62.6111 183.896 63.3889 184.805 63.3889C185.714 63.3889 186.364 62.7407 186.364 61.8333V50.4259C186.364 49.2593 187.273 48.3518 188.442 48.3518C189.61 48.3518 190.519 49.2593 190.519 50.4259V61.8333C190.519 62.6111 191.169 63.3889 192.078 63.3889C192.987 63.3889 193.636 62.7407 193.636 61.8333V50.4259C193.377 47.7037 191.039 45.3704 188.312 45.3704Z" fill="#0066D9"/>
<path d="M154.156 58.3333C154.156 59.5 153.247 60.4074 152.078 60.4074H150V48.4815H152.078C153.247 48.4815 154.156 49.3889 154.156 50.5556V58.3333ZM152.078 45.3704H148.442C147.662 45.3704 146.883 46.0185 146.883 46.9259V61.8333C146.883 62.6111 147.532 63.3889 148.442 63.3889H152.078C154.935 63.3889 157.143 61.0556 157.143 58.3333V50.5556C157.143 47.7037 154.935 45.3704 152.078 45.3704Z" fill="#0066D9"/>
<path d="M166.753 50.5556C166.753 51.7222 165.844 52.6296 164.675 52.6296H162.597V48.4815H164.675C165.844 48.4815 166.753 49.3889 166.753 50.5556ZM164.675 45.3704H161.039C160.26 45.3704 159.481 46.0185 159.481 46.9259V61.8333C159.481 62.6111 160.13 63.3889 161.039 63.3889C161.948 63.3889 162.597 62.7407 162.597 61.8333V55.6111H164.675C165.844 55.6111 166.753 56.5185 166.753 57.6852V61.8333C166.753 62.6111 167.403 63.3889 168.312 63.3889C169.221 63.3889 169.87 62.7407 169.87 61.8333V57.6852C169.87 56.2593 169.351 54.963 168.442 54.0556C169.351 53.1481 169.87 51.8519 169.87 50.4259C169.87 47.7037 167.532 45.3704 164.675 45.3704Z" fill="#0066D9"/>
</svg>
